<?xml version="1.0" standalone="no"?>
<!DOCTYPE svg PUBLIC "-//W3C//DTD SVG 20010904//EN"
 "http://www.w3.org/TR/2001/REC-SVG-20010904/DTD/svg10.dtd">
<svg version="1.0" xmlns="http://www.w3.org/2000/svg"
 width="72.000000pt" height="72.000000pt" viewBox="0 0 72.000000 72.000000"
 preserveAspectRatio="xMidYMid meet">

<g transform="translate(0.000000,72.000000) scale(0.100000,-0.100000)"
fill="#000000" stroke="none">
<path d="M135 566 c-14 -31 -34 -91 -45 -133 -11 -43 -28 -83 -37 -90 -13 -10
-14 -15 -3 -28 9 -11 11 -41 6 -118 -7 -106 -3 -137 19 -137 22 0 35 182 16
233 -11 28 -7 36 36 65 39 27 43 27 43 -1 0 -29 27 -67 48 -67 9 0 36 19 59
42 33 33 46 39 55 30 20 -20 35 -14 58 23 12 19 26 35 32 35 19 0 1 -79 -27
-115 -31 -42 -64 -113 -65 -139 0 -26 30 -47 52 -35 23 12 45 66 51 122 6 56
18 78 55 99 32 19 42 15 42 -17 0 -25 18 -45 40 -45 17 0 113 90 105 98 -2 3
-25 -14 -51 -37 -25 -22 -50 -38 -55 -35 -5 3 -9 18 -9 35 0 24 4 29 24 29 25
0 66 41 66 66 0 18 -37 36 -58 30 -9 -3 -26 -20 -37 -36 -16 -25 -74 -70 -90
-70 -2 0 -1 23 2 50 5 44 4 50 -13 50 -10 0 -36 -17 -57 -37 l-39 -38 2 30 c3
47 1 55 -14 55 -10 0 -17 -16 -22 -45 -5 -37 -14 -52 -47 -80 -50 -43 -67 -44
-67 -6 0 25 5 30 27 33 31 4 67 47 58 71 -16 40 -71 29 -100 -21 -9 -15 -34
-37 -55 -50 l-39 -22 45 85 c51 94 63 166 31 173 -13 3 -24 -10 -42 -52z m29
-44 c-17 -45 -52 -112 -59 -112 -8 0 45 146 62 174 16 25 14 -20 -3 -62z m106
-81 c0 -15 -30 -41 -46 -41 -15 0 -12 10 9 38 11 14 37 16 37 3z m350 -6 c0
-12 -28 -35 -44 -35 -11 0 -6 26 6 38 17 17 38 15 38 -3z m-210 -197 c-9 -55
-18 -75 -36 -82 -22 -8 -18 40 8 85 28 50 37 49 28 -3z m-329 -90 c-8 -30 -9
-27 -10 33 -1 36 2 69 7 73 11 12 14 -68 3 -106z"/>
</g>
</svg>
